<mxfile host="app.diagrams.net" modified="2023-11-24T20:56:00.406Z" agent="Mozilla/5.0 (Windows NT 10.0; Win64; x64) AppleWebKit/537.36 (KHTML, like Gecko) Chrome/118.0.0.0 Safari/537.36 OPR/104.0.0.0" version="22.1.4" etag="bRdxlEf2edhI7SeRTyK3" type="github">
  <diagram name="Page-1" id="X9YkFS0UQipS7ixekP1t">
    <mxGraphModel>
      <root>
        <mxCell id="0" />
        <mxCell id="1" parent="0" />
      </root>
    </mxGraphModel>
  </diagram>
</mxfile>
